Aan al het goede komt een eind, zo ook bij Farscape. Helaas is het voor mij stoppen met deze serie met pijn in mijn hart. Het is en blijft één van mijn favoriete. Ik wil iedereen bedanken die heeft meegeholpen aan het mogelijk maken van deze serie in retail vorm en uiteraard de bedankjes van iedereen; te gek!. Allemaal succes en wie weet tot ziens bij mijn andere series!

Ren Höek
-----------------------------------------

SORRY, NO ENGLISH THIS TIME. This serie is in English, but the menu isn't.

~~~~~~~~~~~~~~~~~~~~~~~~~~~~~~~~~~~~~~~~~~~~~~~~~~~~~~~~~
VERHAALLIJN:
¯¯¯¯¯¯¯¯¯¯¯¯
Het Scarraanse rijk heeft de oorlog verklaard aan de Peacekeepers. Terwijl de strijd in volle gang is, komen beide partijen er achter dat John Crichton (Ben Browder) nog steeds in leven blijkt te zijn. Om zijn kennis over wormholes te bemachtigen, jagen zowel de Peacekeepers als de Scaranen op hem en moet John een definitieve oplossing bedenken tegen de oorlog.

~~~~~~~~~~~~~~~~~~~~~~~~~~~~~~~~~~~~~~~~~~~~~~~~~~~~~~~~~
- Titel: Farscape Peacekeeper Wars DVD2 (RETAIL) RHoek 2Lions
- Grootte: 3,85 GB
- Categorie : Beeld
- Formaat : DVD5 
- Bron : Retail
- Genre : Science Fiction
- Beeld : 4:3
- Audio : 5.1DD Engels + 2.0DD Engels
- Menu : Ja Custom (met dank aan kessy en machoclown)
- Ondertitels : Custom Nederlands (met dank aan DaClownz)
- Genre : Science-Fiction | Avontuur 

Met dank aan Pioen voor het verkrijgen van deze serie & Angelspots voor het spotten!

IMDb: http://www.imdb.com/title/tt0187636/ (8.7 uit 10 !!!)
Officiële website: http://www.farscape.com

~~~~~~~~~~~~~~~~~~~~~~~~~~~~~~~~~~~~~~~~~~~~~~~~~~~~~~~~~
VIDEO & AUDIO INFORMATIE
¯¯¯¯¯¯¯¯¯¯¯¯¯¯¯¯¯¯¯¯¯¯¯¯¯¯¯¯¯¯
Video
ID                               : 224 (0xE0)
Format                           : MPEG Video
Format version                   : Version 2
Format profile                   : Main@Main
Format settings, BVOP            : Yes
Format settings, Matrix          : Default
Duration                         : 22mn 50s
Bit rate mode                    : Constant
Bit rate                         : 5 500 Kbps
Width                            : 720 pixels
Height                           : 576 pixels
Display aspect ratio             : 2.35:1
Frame rate                       : 25.000 fps
Standard                         : PAL
Color space                      : YUV
Chroma subsampling               : 4:2:0
Bit depth                        : 8 bits
Scan type                        : Interlaced
Scan order                       : Top Field First
Bits/(Pixel*Frame)               : 0.530
Stream size                      : 899 MiB (88%)

Audio #1
ID                               : 128 (0x80)
Format                           : AC-3
Format/Info                      : Audio Coding 3
Mode extension                   : CM (complete main)
Duration                         : 22mn 50s
Bit rate mode                    : Constant
Bit rate                         : 192 Kbps
Channel(s)                       : 2 channels
Channel positions                : Front: L R
Sampling rate                    : 48.0 KHz
Bit depth                        : 16 bits
Stream size                      : 31.4 MiB (3%)

Audio #2
ID                               : 129 (0x81)
Format                           : AC-3
Format/Info                      : Audio Coding 3
Mode extension                   : CM (complete main)
Duration                         : 22mn 50s
Bit rate mode                    : Constant
Bit rate                         : 448 Kbps
Channel(s)                       : 6 channels
Channel positions                : Front: L C R, Side: L R, LFE
Sampling rate                    : 48.0 KHz
Bit depth                        : 16 bits
Stream size                      : 73.2 MiB (7%)

*********************************
Brought to you by Ren Höek
*********************************